  0
SECTION
  2
HEADER
  9
$ACADVER
  1
AC1009
  9
$DWGCODEPAGE
  3
ansi_1252
  9
$INSBASE
 10
0.0
 20
0.0
 30
0.0
  9
$EXTMIN
 10
-34.53504866606626
 20
-2.149045368881141
 30
0.0
  9
$EXTMAX
 10
39.06151615199174
 20
109.4832807345209
 30
0.0
  9
$LIMMIN
 10
0.0
 20
0.0
  9
$LIMMAX
 10
12.0
 20
9.0
  9
$ORTHOMODE
 70
     0
  9
$REGENMODE
 70
     1
  9
$FILLMODE
 70
     1
  9
$QTEXTMODE
 70
     0
  9
$MIRRTEXT
 70
     1
  9
$DRAGMODE
 70
     2
  9
$LTSCALE
 40
1.0
  9
$OSMODE
 70
    37
  9
$ATTMODE
 70
     1
  9
$TEXTSIZE
 40
0.2
  9
$TRACEWID
 40
0.05
  9
$TEXTSTYLE
  7
STANDARD
  9
$CLAYER
  8
DEFAULT
  9
$CELTYPE
  6
BYLAYER
  9
$CECOLOR
 62
   256
  9
$DIMSCALE
 40
1.0
  9
$DIMASZ
 40
0.18
  9
$DIMEXO
 40
0.0625
  9
$DIMDLI
 40
0.38
  9
$DIMRND
 40
0.0
  9
$DIMDLE
 40
0.0
  9
$DIMEXE
 40
0.18
  9
$DIMTP
 40
0.0
  9
$DIMTM
 40
0.0
  9
$DIMTXT
 40
0.18
  9
$DIMCEN
 40
0.09
  9
$DIMTSZ
 40
0.0
  9
$DIMTOL
 70
     0
  9
$DIMLIM
 70
     0
  9
$DIMTIH
 70
     1
  9
$DIMTOH
 70
     1
  9
$DIMSE1
 70
     0
  9
$DIMSE2
 70
     0
  9
$DIMTAD
 70
     0
  9
$DIMZIN
 70
     0
  9
$DIMBLK
  1

  9
$DIMASO
 70
     1
  9
$DIMSHO
 70
     1
  9
$DIMPOST
  1

  9
$DIMAPOST
  1

  9
$DIMALT
 70
     0
  9
$DIMALTD
 70
     2
  9
$DIMALTF
 40
25.4
  9
$DIMLFAC
 40
1.0
  9
$DIMTOFL
 70
     0
  9
$DIMTVP
 40
0.0
  9
$DIMTIX
 70
     0
  9
$DIMSOXD
 70
     0
  9
$DIMSAH
 70
     0
  9
$DIMBLK1
  1

  9
$DIMBLK2
  1

  9
$DIMSTYLE
  2
STANDARD_ACAD
  9
$DIMCLRD
 70
     0
  9
$DIMCLRE
 70
     0
  9
$DIMCLRT
 70
     0
  9
$DIMTFAC
 40
1.0
  9
$DIMGAP
 40
0.09
  9
$LUNITS
 70
     2
  9
$LUPREC
 70
     3
  9
$SKETCHINC
 40
0.1
  9
$FILLETRAD
 40
0.0
  9
$AUNITS
 70
     0
  9
$AUPREC
 70
     0
  9
$MENU
  1
.
  9
$ELEVATION
 40
0.0
  9
$PELEVATION
 40
0.0
  9
$THICKNESS
 40
0.0
  9
$LIMCHECK
 70
     0
  9
$CHAMFERA
 40
0.0
  9
$CHAMFERB
 40
0.0
  9
$SKPOLY
 70
     0
  9
$TDCREATE
 40
2460644.403813947
  9
$TDUPDATE
 40
2460644.403860637
  9
$TDINDWG
 40
0.0000000116
  9
$TDUSRTIMER
 40
0.0000000116
  9
$USRTIMER
 70
     1
  9
$ANGBASE
 50
0.0
  9
$ANGDIR
 70
     0
  9
$PDMODE
 70
     0
  9
$PDSIZE
 40
0.0
  9
$PLINEWID
 40
0.0
  9
$COORDS
 70
     1
  9
$SPLFRAME
 70
     0
  9
$SPLINETYPE
 70
     6
  9
$SPLINESEGS
 70
     8
  9
$ATTDIA
 70
     0
  9
$ATTREQ
 70
     1
  9
$HANDLING
 70
     1
  9
$HANDSEED
  5
24C
  9
$SURFTAB1
 70
     6
  9
$SURFTAB2
 70
     6
  9
$SURFTYPE
 70
     6
  9
$SURFU
 70
     6
  9
$SURFV
 70
     6
  9
$UCSNAME
  2

  9
$UCSORG
 10
0.0
 20
0.0
 30
0.0
  9
$UCSXDIR
 10
1.0
 20
0.0
 30
0.0
  9
$UCSYDIR
 10
0.0
 20
1.0
 30
0.0
  9
$PUCSNAME
  2

  9
$PUCSORG
 10
0.0
 20
0.0
 30
0.0
  9
$PUCSXDIR
 10
1.0
 20
0.0
 30
0.0
  9
$PUCSYDIR
 10
0.0
 20
1.0
 30
0.0
  9
$USERI1
 70
     0
  9
$USERI2
 70
     0
  9
$USERI3
 70
     0
  9
$USERI4
 70
     0
  9
$USERI5
 70
     0
  9
$USERR1
 40
0.0
  9
$USERR2
 40
0.0
  9
$USERR3
 40
0.0
  9
$USERR4
 40
0.0
  9
$USERR5
 40
0.0
  9
$WORLDVIEW
 70
     1
  9
$SHADEDGE
 70
     3
  9
$SHADEDIF
 70
    70
  9
$TILEMODE
 70
     1
  9
$MAXACTVP
 70
    64
  9
$PLIMCHECK
 70
     0
  9
$PEXTMIN
 10
1.000000000000000E+20
 20
1.000000000000000E+20
 30
1.000000000000000E+20
  9
$PEXTMAX
 10
-1.000000000000000E+20
 20
-1.000000000000000E+20
 30
-1.000000000000000E+20
  9
$PLIMMIN
 10
0.0
 20
0.0
  9
$PLIMMAX
 10
12.0
 20
9.0
  9
$UNITMODE
 70
     0
  9
$VISRETAIN
 70
     1
  9
$PLINEGEN
 70
     0
  9
$PSLTSCALE
 70
     1
  0
ENDSEC
  0
SECTION
  2
TABLES
  0
TABLE
  2
VPORT
 70
     1
  0
VPORT
  2
*ACTIVE
 70
     0
 10
0.0
 20
0.0
 11
1.0
 21
1.0
 12
10.42990654205607
 22
4.5
 13
0.0
 23
0.0
 14
0.5
 24
0.5
 15
0.5
 25
0.5
 16
0.0
 26
0.0
 36
1.0
 17
0.0
 27
0.0
 37
0.0
 40
9.0
 41
1.972972972850329
 42
50.0
 43
0.0
 44
0.0
 50
0.0
 51
0.0
 71
     0
 72
   100
 73
     1
 74
     3
 75
     0
 76
     0
 77
     0
 78
     0
  0
ENDTAB
  0
TABLE
  2
LTYPE
 70
     1
  0
LTYPE
  2
CONTINUOUS
 70
     0
  3
Solid line
 72
    65
 73
     0
 40
0.0
  0
ENDTAB
  0
TABLE
  2
LAYER
 70
     2
  0
LAYER
  2
0
 70
     0
 62
     7
  6
CONTINUOUS
  0
LAYER
  2
DEFAULT
 70
     0
 62
     7
  6
CONTINUOUS
  0
ENDTAB
  0
TABLE
  2
STYLE
 70
     1
  0
STYLE
  2
STANDARD
 70
     0
 40
0.0
 41
1.0
 50
0.0
 71
     0
 42
0.2
  3
txt
  4

  0
ENDTAB
  0
TABLE
  2
VIEW
 70
     0
  0
ENDTAB
  0
TABLE
  2
UCS
 70
     0
  0
ENDTAB
  0
TABLE
  2
APPID
 70
     2
  0
APPID
  2
ACAD
 70
     0
  0
APPID
  2
RHINO
 70
     0
  0
ENDTAB
  0
TABLE
  2
DIMSTYLE
 70
     1
  0
DIMSTYLE
  2
STANDARD_ACAD
 70
     0
  3

  4

  5

  6

  7

 40
1.0
 41
0.18
 42
0.0625
 43
0.38
 44
0.18
 45
0.0
 46
0.0
 47
0.0
 48
0.0
140
0.18
141
0.09
142
0.0
143
25.4
144
1.0
145
0.0
146
1.0
147
0.09
 71
     0
 72
     0
 73
     1
 74
     1
 75
     0
 76
     0
 77
     0
 78
     0
170
     0
171
     2
172
     0
173
     0
174
     0
175
     0
176
     0
177
     0
178
     0
  0
ENDTAB
  0
ENDSEC
  0
SECTION
  2
BLOCKS
  0
BLOCK
  8
0
  2
$MODEL_SPACE
 70
     0
 10
0.0
 20
0.0
 30
0.0
  3
$MODEL_SPACE
  1

  0
ENDBLK
  5
21
  8
0
  0
BLOCK
 67
     1
  8
0
  2
$PAPER_SPACE
 70
     0
 10
0.0
 20
0.0
 30
0.0
  3
$PAPER_SPACE
  1

  0
ENDBLK
  5
1D
 67
     1
  8
0
  0
ENDSEC
  0
SECTION
  2
ENTITIES
  0
POLYLINE
  5
60
  8
DEFAULT
 66
     1
 10
0.0
 20
0.0
 30
0.0
 70
     1
  0
VERTEX
  5
61
  8
DEFAULT
 10
-16.54648567556431
 20
16.95345822746419
 30
0.0
  0
VERTEX
  5
62
  8
DEFAULT
 10
-16.55920437924015
 20
16.82695790370589
 30
0.0
  0
VERTEX
  5
63
  8
DEFAULT
 10
-16.5689936469088
 20
16.70020425160458
 30
0.0
  0
VERTEX
  5
64
  8
DEFAULT
 10
-16.57539919396595
 20
16.57334986256662
 30
0.0
  0
VERTEX
  5
65
  8
DEFAULT
 10
-16.57796673580734
 20
16.44654732799837
 30
0.0
  0
VERTEX
  5
66
  8
DEFAULT
 10
-16.57766929083328
 20
16.38321319095487
 30
0.0
  0
VERTEX
  5
67
  8
DEFAULT
 10
-16.57624198782868
 20
16.31994923930617
 30
0.0
  0
VERTEX
  5
68
  8
DEFAULT
 10
-16.57362804121799
 20
16.25677454697808
 30
0.0
  0
VERTEX
  5
69
  8
DEFAULT
 10
-16.56977066542569
 20
16.19370818789638
 30
0.0
  0
VERTEX
  5
6A
  8
DEFAULT
 10
-16.56461307487623
 20
16.13076923598687
 30
0.0
  0
VERTEX
  5
6B
  8
DEFAULT
 10
-16.55809848399408
 20
16.06797676517535
 30
0.0
  0
VERTEX
  5
6C
  8
DEFAULT
 10
-16.55017010720371
 20
16.00534984938761
 30
0.0
  0
VERTEX
  5
6D
  8
DEFAULT
 10
-16.54077115892958
 20
15.94290756254945
 30
0.0
  0
VERTEX
  5
6E
  8
DEFAULT
 10
-16.52985847193206
 20
15.88067070791929
 30
0.0
  0
VERTEX
  5
6F
  8
DEFAULT
 10
-16.51744335231513
 20
15.81866700608614
 30
0.0
  0
VERTEX
  5
70
  8
DEFAULT
 10
-16.50355072451866
 20
15.75692590697163
 30
0.0
  0
VERTEX
  5
71
  8
DEFAULT
 10
-16.48820551298255
 20
15.69547686049741
 30
0.0
  0
VERTEX
  5
72
  8
DEFAULT
 10
-16.47143264214668
 20
15.63434931658511
 30
0.0
  0
VERTEX
  5
73
  8
DEFAULT
 10
-16.45325703645092
 20
15.57357272515637
 30
0.0
  0
VERTEX
  5
74
  8
DEFAULT
 10
-16.43370362033516
 20
15.51317653613284
 30
0.0
  0
VERTEX
  5
75
  8
DEFAULT
 10
-16.41279731823929
 20
15.45319019943613
 30
0.0
  0
VERTEX
  5
76
  8
DEFAULT
 10
-16.39056305460317
 20
15.39364316498791
 30
0.0
  0
VERTEX
  5
77
  8
DEFAULT
 10
-16.36702575386671
 20
15.33456488270979
 30
0.0
  0
VERTEX
  5
78
  8
DEFAULT
 10
-16.34221034046977
 20
15.27598480252343
 30
0.0
  0
VERTEX
  5
79
  8
DEFAULT
 10
-16.31614173885225
 20
15.21793237435046
 30
0.0
  0
VERTEX
  5
7A
  8
DEFAULT
 10
-16.28884487345401
 20
15.16043704811252
 30
0.0
  0
VERTEX
  5
7B
  8
DEFAULT
 10
-16.26034466871495
 20
15.10352827373125
 30
0.0
  0
VERTEX
  5
7C
  8
DEFAULT
 10
-16.23066604907496
 20
15.04723550112829
 30
0.0
  0
VERTEX
  5
7D
  8
DEFAULT
 10
-16.1998339389739
 20
14.99158818022527
 30
0.0
  0
VERTEX
  5
7E
  8
DEFAULT
 10
-16.16787140182672
 20
14.93661439509968
 30
0.0
  0
VERTEX
  5
7F
  8
DEFAULT
 10
-16.13479405694862
 20
14.88233676645236
 30
0.0
  0
VERTEX
  5
80
  8
DEFAULT
 10
-16.10061566262984
 20
14.82877654914001
 30
0.0
  0
VERTEX
  5
81
  8
DEFAULT
 10
-16.06534997716064
 20
14.77595499801932
 30
0.0
  0
VERTEX
  5
82
  8
DEFAULT
 10
-16.02901075883127
 20
14.72389336794699
 30
0.0
  0
VERTEX
  5
83
  8
DEFAULT
 10
-15.99161176593197
 20
14.67261291377969
 30
0.0
  0
VERTEX
  5
84
  8
DEFAULT
 10
-15.95316675675301
 20
14.62213489037414
 30
0.0
  0
VERTEX
  5
85
  8
DEFAULT
 10
-15.91368948958463
 20
14.57248055258702
 30
0.0
  0
VERTEX
  5
86
  8
DEFAULT
 10
-15.87319372271707
 20
14.52367115527503
 30
0.0
  0
VERTEX
  5
87
  8
DEFAULT
 10
-15.83169321444061
 20
14.47572795329484
 30
0.0
  0
VERTEX
  5
88
  8
DEFAULT
 10
-15.78920172304548
 20
14.42867220150317
 30
0.0
  0
VERTEX
  5
89
  8
DEFAULT
 10
-15.74573300682194
 20
14.38252515475669
 30
0.0
  0
VERTEX
  5
8A
  8
DEFAULT
 10
-15.70130082406023
 20
14.33730806791211
 30
0.0
  0
VERTEX
  5
8B
  8
DEFAULT
 10
-15.65591893305061
 20
14.29304219582611
 30
0.0
  0
VERTEX
  5
8C
  8
DEFAULT
 10
-15.60960109208334
 20
14.24974879335539
 30
0.0
  0
VERTEX
  5
8D
  8
DEFAULT
 10
-15.56236105944866
 20
14.20744911535664
 30
0.0
  0
VERTEX
  5
8E
  8
DEFAULT
 10
-15.51421463404431
 20
14.16616351891533
 30
0.0
  0
VERTEX
  5
8F
  8
DEFAULT
 10
-15.46518577719798
 20
14.12590877003204
 30
0.0
  0
VERTEX
  5
90
  8
DEFAULT
 10
-15.41530049084487
 20
14.08670073693614
 30
0.0
  0
VERTEX
  5
91
  8
DEFAULT
 10
-15.36458477692015
 20
14.04855528785699
 30
0.0
  0
VERTEX
  5
92
  8
DEFAULT
 10
-15.31306463735901
 20
14.01148829102395
 30
0.0
  0
VERTEX
  5
93
  8
DEFAULT
 10
-15.26076607409662
 20
13.97551561466638
 30
0.0
  0
VERTEX
  5
94
  8
DEFAULT
 10
-15.20771508906817
 20
13.94065312701364
 30
0.0
  0
VERTEX
  5
95
  8
DEFAULT
 10
-15.15393768420885
 20
13.9069166962951
 30
0.0
  0
VERTEX
  5
96
  8
DEFAULT
 10
-15.09945986145384
 20
13.87432219074012
 30
0.0
  0
VERTEX
  5
97
  8
DEFAULT
 10
-15.04430762273832
 20
13.84288547857806
 30
0.0
  0
VERTEX
  5
98
  8
DEFAULT
 10
-14.98850696999748
 20
13.81262242803828
 30
0.0
  0
VERTEX
  5
99
  8
DEFAULT
 10
-14.93208390516649
 20
13.78354890735014
 30
0.0
  0
VERTEX
  5
9A
  8
DEFAULT
 10
-14.87506443018054
 20
13.75568078474301
 30
0.0
  0
VERTEX
  5
9B
  8
DEFAULT
 10
-14.81747454697481
 20
13.72903392844625
 30
0.0
  0
VERTEX
  5
9C
  8
DEFAULT
 10
-14.75934025748449
 20
13.70362420668921
 30
0.0
  0
VERTEX
  5
9D
  8
DEFAULT
 10
-14.70068756364476
 20
13.67946748770127
 30
0.0
  0
VERTEX
  5
9E
  8
DEFAULT
 10
-14.64154237704258
 20
13.65657750042716
 30
0.0
  0
VERTEX
  5
9F
  8
DEFAULT
 10
-14.58193024787194
 20
13.63495941667312
 30
0.0
  0
VERTEX
  5
A0
  8
DEFAULT
 10
-14.52187663597865
 20
13.61461626896076
 30
0.0
  0
VERTEX
  5
A1
  8
DEFAULT
 10
-14.46140700120847
 20
13.59555108981172
 30
0.0
  0
VERTEX
  5
A2
  8
DEFAULT
 10
-14.40054680340721
 20
13.5777669117476
 30
0.0
  0
VERTEX
  5
A3
  8
DEFAULT
 10
-14.33932150242063
 20
13.56126676729002
 30
0.0
  0
VERTEX
  5
A4
  8
DEFAULT
 10
-14.27775655809454
 20
13.54605368896059
 30
0.0
  0
VERTEX
  5
A5
  8
DEFAULT
 10
-14.21587743027469
 20
13.53213070928095
 30
0.0
  0
VERTEX
  5
A6
  8
DEFAULT
 10
-14.15370957880689
 20
13.5195008607727
 30
0.0
  0
VERTEX
  5
A7
  8
DEFAULT
 10
-14.09127846353692
 20
13.50816717595746
 30
0.0
  0
VERTEX
  5
A8
  8
DEFAULT
 10
-14.02860954431055
 20
13.49813268735685
 30
0.0
  0
VERTEX
  5
A9
  8
DEFAULT
 10
-13.96572828097357
 20
13.48940042749249
 30
0.0
  0
VERTEX
  5
AA
  8
DEFAULT
 10
-13.90266013337177
 20
13.48197342888599
 30
0.0
  0
VERTEX
  5
AB
  8
DEFAULT
 10
-13.83943056135093
 20
13.47585472405897
 30
0.0
  0
VERTEX
  5
AC
  8
DEFAULT
 10
-13.77606502475683
 20
13.47104734553305
 30
0.0
  0
VERTEX
  5
AD
  8
DEFAULT
 10
-13.71258898343526
 20
13.46755432582985
 30
0.0
  0
VERTEX
  5
AE
  8
DEFAULT
 10
-13.64902972016806
 20
13.46537939640125
 30
0.0
  0
VERTEX
  5
AF
  8
DEFAULT
 10
-13.58542180948132
 20
13.4645290844202
 30
0.0
  0
VERTEX
  5
B0
  8
DEFAULT
 10
-13.52180164883721
 20
13.46501061598992
 30
0.0
  0
VERTEX
  5
B1
  8
DEFAULT
 10
-13.45820563569787
 20
13.46683121721361
 30
0.0
  0
VERTEX
  5
B2
  8
DEFAULT
 10
-13.39467016752546
 20
13.4699981141945
 30
0.0
  0
VERTEX
  5
B3
  8
DEFAULT
 10
-13.33123164178214
 20
13.47451853303579
 30
0.0
  0
VERTEX
  5
B4
  8
DEFAULT
 10
-13.26792645593006
 20
13.48039969984071
 30
0.0
  0
VERTEX
  5
B5
  8
DEFAULT
 10
-13.20479100743138
 20
13.48764884071247
 30
0.0
  0
VERTEX
  5
B6
  8
DEFAULT
 10
-13.14186169374825
 20
13.49627318175428
 30
0.0
  0
VERTEX
  5
B7
  8
DEFAULT
 10
-13.07917491234283
 20
13.50627994906935
 30
0.0
  0
VERTEX
  5
B8
  8
DEFAULT
 10
-13.01676706067727
 20
13.51767636876091
 30
0.0
  0
VERTEX
  5
B9
  8
DEFAULT
 10
-12.95467453621373
 20
13.53046966693216
 30
0.0
  0
VERTEX
  5
BA
  8
DEFAULT
 10
-12.89293373641436
 20
13.54466706968632
 30
0.0
  0
VERTEX
  5
BB
  8
DEFAULT
 10
-12.83158105874133
 20
13.56027580312661
 30
0.0
  0
VERTEX
  5
BC
  8
DEFAULT
 10
-12.77065290065677
 20
13.57730309335624
 30
0.0
  0
VERTEX
  5
BD
  8
DEFAULT
 10
-12.71018565962286
 20
13.59575616647843
 30
0.0
  0
VERTEX
  5
BE
  8
DEFAULT
 10
-12.65020892871961
 20
13.61563216978755
 30
0.0
  0
VERTEX
  5
BF
  8
DEFAULT
 10
-12.59072508349851
 20
13.63688793534272
 30
0.0
  0
VERTEX
  5
C0
  8
DEFAULT
 10
-12.53172969512891
 20
13.65947021639419
 30
0.0
  0
VERTEX
  5
C1
  8
DEFAULT
 10
-12.47321833478015
 20
13.68332576619222
 30
0.0
  0
VERTEX
  5
C2
  8
DEFAULT
 10
-12.41518657362161
 20
13.70840133798708
 30
0.0
  0
VERTEX
  5
C3
  8
DEFAULT
 10
-12.35762998282262
 20
13.73464368502905
 30
0.0
  0
VERTEX
  5
C4
  8
DEFAULT
 10
-12.30054413355254
 20
13.76199956056838
 30
0.0
  0
VERTEX
  5
C5
  8
DEFAULT
 10
-12.24392459698072
 20
13.79041571785534
 30
0.0
  0
VERTEX
  5
C6
  8
DEFAULT
 10
-12.13206674660928
 20
13.8502158906732
 30
0.0
  0
VERTEX
  5
C7
  8
DEFAULT
 10
-12.02202100106312
 20
13.91361822948478
 30
0.0
  0
VERTEX
  5
C8
  8
DEFAULT
 10
-11.91375192969705
 20
13.98019676029219
 30
0.0
  0
VERTEX
  5
C9
  8
DEFAULT
 10
-11.80722410186589
 20
14.04952550909756
 30
0.0
  0
VERTEX
  5
CA
  8
DEFAULT
 10
-11.70235002347609
 20
14.1211698066124
 30
0.0
  0
VERTEX
  5
CB
  8
DEFAULT
 10
-10.98677808348174
 20
14.64759447893154
 30
0.0
  0
VERTEX
  5
CC
  8
DEFAULT
 10
-10.77845057463195
 20
14.79246604401031
 30
0.0
  0
VERTEX
  5
CD
  8
DEFAULT
 10
-10.56660114578034
 20
14.93231251809034
 30
0.0
  0
VERTEX
  5
CE
  8
DEFAULT
 10
-10.13547569276692
 20
15.20084458017162
 30
0.0
  0
VERTEX
  5
CF
  8
DEFAULT
 10
-9.698421236740145
 20
15.45932489556061
 30
0.0
  0
VERTEX
  5
D0
  8
DEFAULT
 10
-9.255422021631253
 20
15.70710952084371
 30
0.0
  0
VERTEX
  5
D1
  8
DEFAULT
 10
-8.805542883328005
 20
15.94231774010993
 30
0.0
  0
VERTEX
  5
D2
  8
DEFAULT
 10
-8.349206293911697
 20
16.16489992125731
 30
0.0
  0
VERTEX
  5
D3
  8
DEFAULT
 10
-7.887085142407043
 20
16.37514537242708
 30
0.0
  0
VERTEX
  5
D4
  8
DEFAULT
 10
-7.419496349418916
 20
16.5728680789242
 30
0.0
  0
VERTEX
  5
D5
  8
DEFAULT
 10
-6.946693155130104
 20
16.75779905243721
 30
0.0
  0
VERTEX
  5
D6
  8
DEFAULT
 10
-6.46903004645495
 20
16.92981273302517
 30
0.0
  0
VERTEX
  5
D7
  8
DEFAULT
 10
-5.986881718315209
 20
17.08881376787149
 30
0.0
  0
VERTEX
  5
D8
  8
DEFAULT
 10
-5.500602450930758
 20
17.23468420428672
 30
0.0
  0
VERTEX
  5
D9
  8
DEFAULT
 10
-5.010543719486405
 20
17.36730612906788
 30
0.0
  0
VERTEX
  5
DA
  8
DEFAULT
 10
-4.517066193728578
 20
17.48658438683091
 30
0.0
  0
VERTEX
  5
DB
  8
DEFAULT
 10
-4.020533598117534
 20
17.59243207406743
 30
0.0
  0
VERTEX
  5
DC
  8
DEFAULT
 10
-3.521312681407212
 20
17.68477253695269
 30
0.0
  0
VERTEX
  5
DD
  8
DEFAULT
 10
-3.019771263474158
 20
17.76353527293453
 30
0.0
  0
VERTEX
  5
DE
  8
DEFAULT
 10
-2.516278424391667
 20
17.82866413486751
 30
0.0
  0
VERTEX
  5
DF
  8
DEFAULT
 10
-2.011203970646436
 20
17.88010983537671
 30
0.0
  0
VERTEX
  5
E0
  8
DEFAULT
 10
-1.504919354182031
 20
17.91783617076266
 30
0.0
  0
VERTEX
  5
E1
  8
DEFAULT
 10
-0.9977968961535353
 20
17.94181360107719
 30
0.0
  0
VERTEX
  5
E2
  8
DEFAULT
 10
-0.4902107491052309
 20
17.95202615770178
 30
0.0
  0
VERTEX
  5
E3
  8
DEFAULT
 10
0.0174648079483932
 20
17.94846463848409
 30
0.0
  0
VERTEX
  5
E4
  8
DEFAULT
 10
0.5248568215012093
 20
17.93113333580655
 30
0.0
  0
VERTEX
  5
E5
  8
DEFAULT
 10
1.031592438985959
 20
17.9000433177149
 30
0.0
  0
VERTEX
  5
E6
  8
DEFAULT
 10
1.537297886082495
 20
17.85521926037327
 30
0.0
  0
VERTEX
  5
E7
  8
DEFAULT
 10
2.041599963790927
 20
17.79669255621109
 30
0.0
  0
VERTEX
  5
E8
  8
DEFAULT
 10
2.544128696145267
 20
17.72450785460052
 30
0.0
  0
VERTEX
  5
E9
  8
DEFAULT
 10
3.044515106008478
 20
17.63871648235308
 30
0.0
  0
VERTEX
  5
EA
  8
DEFAULT
 10
3.54239098852541
 20
17.53938321909498
 30
0.0
  0
VERTEX
  5
EB
  8
DEFAULT
 10
4.037389033208005
 20
17.42657954568413
 30
0.0
  0
VERTEX
  5
EC
  8
DEFAULT
 10
4.529144734754677
 20
17.30039029509062
 30
0.0
  0
VERTEX
  5
ED
  8
DEFAULT
 10
5.017295392942094
 20
17.16090683118291
 30
0.0
  0
VERTEX
  5
EE
  8
DEFAULT
 10
5.501482722673478
 20
17.00823328931096
 30
0.0
  0
VERTEX
  5
EF
  8
DEFAULT
 10
5.98135039512076
 20
16.84248026862254
 30
0.0
  0
VERTEX
  5
F0
  8
DEFAULT
 10
6.456545491404175
 20
16.66377145197525
 30
0.0
  0
VERTEX
  5
F1
  8
DEFAULT
 10
6.926717295747725
 20
16.47223690336684
 30
0.0
  0
VERTEX
  5
F2
  8
DEFAULT
 10
7.39152049484219
 20
16.26801912764595
 30
0.0
  0
VERTEX
  5
F3
  8
DEFAULT
 10
7.850612484613157
 20
16.05126682390495
 30
0.0
  0
VERTEX
  5
F4
  8
DEFAULT
 10
8.303656095458628
 20
15.82214102736024
 30
0.0
  0
VERTEX
  5
F5
  8
DEFAULT
 10
8.750317015310332
 20
15.58080890761314
 30
0.0
  0
VERTEX
  5
F6
  8
DEFAULT
 10
9.190266927762456
 20
15.32744983568056
 30
0.0
  0
VERTEX
  5
F7
  8
DEFAULT
 10
9.623180998174043
 20
15.06224896018828
 30
0.0
  0
VERTEX
  5
F8
  8
DEFAULT
 10
10.04874232330108
 20
14.7854023387821
 30
0.0
  0
VERTEX
  5
F9
  8
DEFAULT
 10
10.4666374792139
 20
14.49711182588343
 30
0.0
  0
VERTEX
  5
FA
  8
DEFAULT
 10
10.87655902784326
 20
14.19759155399614
 30
0.0
  0
VERTEX
  5
FB
  8
DEFAULT
 10
11.27820336757248
 20
13.88706121542875
 30
0.0
  0
VERTEX
  5
FC
  8
DEFAULT
 10
11.67127625673472
 20
13.56575046362589
 30
0.0
  0
VERTEX
  5
FD
  8
DEFAULT
 10
12.05548781803726
 20
13.23389413488392
 30
0.0
  0
VERTEX
  5
FE
  8
DEFAULT
 10
12.43055627173413
 20
12.89173783576979
 30
0.0
  0
VERTEX
  5
FF
  8
DEFAULT
 10
12.79620421927875
 20
12.53953230246242
 30
0.0
  0
VERTEX
  5
100
  8
DEFAULT
 10
13.15216368937554
 20
12.17753801931768
 30
0.0
  0
VERTEX
  5
101
  8
DEFAULT
 10
13.49817152764744
 20
11.80602021661315
 30
0.0
  0
VERTEX
  5
102
  8
DEFAULT
 10
13.83397442014058
 20
11.42525336013608
 30
0.0
  0
VERTEX
  5
103
  8
DEFAULT
 10
14.15932402819635
 20
11.0355164758636
 30
0.0
  0
VERTEX
  5
104
  8
DEFAULT
 10
14.47398207391388
 20
10.6370975950226
 30
0.0
  0
VERTEX
  5
105
  8
DEFAULT
 10
14.77771550918725
 20
10.2302890554076
 30
0.0
  0
VERTEX
  5
106
  8
DEFAULT
 10
15.07030214433245
 20
9.815391415833743
 30
0.0
  0
VERTEX
  5
107
  8
DEFAULT
 10
15.35152530804355
 20
9.392709041620913
 30
0.0
  0
VERTEX
  5
108
  8
DEFAULT
 10
15.62117954410507
 20
8.962553303087109
 30
0.0
  0
VERTEX
  5
109
  8
DEFAULT
 10
15.87906513091198
 20
8.525239434985748
 30
0.0
  0
VERTEX
  5
10A
  8
DEFAULT
 10
16.12499407021072
 20
8.081091124813788
 30
0.0
  0
VERTEX
  5
10B
  8
DEFAULT
 10
16.35878355392902
 20
7.630435450974833
 30
0.0
  0
VERTEX
  5
10C
  8
DEFAULT
 10
16.58025981136815
 20
7.173604602755566
 30
0.0
  0
VERTEX
  5
10D
  8
DEFAULT
 10
16.78925764646529
 20
6.710933779580037
 30
0.0
  0
VERTEX
  5
10E
  8
DEFAULT
 10
16.98563712432763
 20
6.242765110538711
 30
0.0
  0
VERTEX
  5
10F
  8
DEFAULT
 10
17.1692556871769
 20
5.769442174041987
 30
0.0
  0
VERTEX
  5
110
  8
DEFAULT
 10
17.33993502452319
 20
5.291307416113584
 30
0.0
  0
VERTEX
  5
111
  8
DEFAULT
 10
17.49753568310785
 20
4.808710965216196
 30
0.0
  0
VERTEX
  5
112
  8
DEFAULT
 10
17.64210939130925
 20
4.322034811955062
 30
0.0
  0
VERTEX
  5
113
  8
DEFAULT
 10
17.77359278148161
 20
3.8316434696476
 30
0.0
  0
VERTEX
  5
114
  8
DEFAULT
 10
17.89127092024579
 20
3.337799680317371
 30
0.0
  0
VERTEX
  5
115
  8
DEFAULT
 10
17.99488919372808
 20
2.840840317946762
 30
0.0
  0
VERTEX
  5
116
  8
DEFAULT
 10
18.08668583181006
 20
2.341500555647319
 30
0.0
  0
VERTEX
  5
117
  8
DEFAULT
 10
18.16721216455285
 20
1.840246481554701
 30
0.0
  0
VERTEX
  5
118
  8
DEFAULT
 10
18.2006780005395
 20
1.588609446665513
 30
0.0
  0
VERTEX
  5
119
  8
DEFAULT
 10
18.22777907898045
 20
1.336069544771873
 30
0.0
  0
VERTEX
  5
11A
  8
DEFAULT
 10
18.27988326487818
 20
0.7027811194653062
 30
0.0
  0
VERTEX
  5
11B
  8
DEFAULT
 10
18.29381308041663
 20
0.5767389716534264
 30
0.0
  0
VERTEX
  5
11C
  8
DEFAULT
 10
18.31088819377785
 20
0.4512035970765667
 30
0.0
  0
VERTEX
  5
11D
  8
DEFAULT
 10
18.32086983156653
 20
0.3886663418251813
 30
0.0
  0
VERTEX
  5
11E
  8
DEFAULT
 10
18.33195530712033
 20
0.3263042503712452
 30
0.0
  0
VERTEX
  5
11F
  8
DEFAULT
 10
18.34423285991667
 20
0.2641358647670382
 30
0.0
  0
VERTEX
  5
120
  8
DEFAULT
 10
18.35772033626343
 20
0.2021892679556993
 30
0.0
  0
VERTEX
  5
121
  8
DEFAULT
 10
18.37241798417606
 20
0.1404949281030828
 30
0.0
  0
VERTEX
  5
122
  8
DEFAULT
 10
18.38832605167005
 20
0.0790833133750428
 30
0.0
  0
VERTEX
  5
123
  8
DEFAULT
 10
18.40544478676086
 20
0.0179848919374332
 30
0.0
  0
VERTEX
  5
124
  8
DEFAULT
 10
18.42377443746396
 20
-0.0427698680438916
 30
0.0
  0
VERTEX
  5
125
  8
DEFAULT
 10
18.44331525179483
 20
-0.1031504984030777
 30
0.0
  0
VERTEX
  5
126
  8
DEFAULT
 10
18.46406747776894
 20
-0.163126530974271
 30
0.0
  0
VERTEX
  5
127
  8
DEFAULT
 10
18.48603136340175
 20
-0.2226674975916172
 30
0.0
  0
VERTEX
  5
128
  8
DEFAULT
 10
18.50920715670874
 20
-0.2817429300892624
 30
0.0
  0
VERTEX
  5
129
  8
DEFAULT
 10
18.53359510570539
 20
-0.3403223603013523
 30
0.0
  0
VERTEX
  5
12A
  8
DEFAULT
 10
18.55919545840716
 20
-0.398375320062033
 30
0.0
  0
VERTEX
  5
12B
  8
DEFAULT
 10
18.58600846282952
 20
-0.4558713412054503
 30
0.0
  0
VERTEX
  5
12C
  8
DEFAULT
 10
18.61403436698795
 20
-0.51277995556575
 30
0.0
  0
VERTEX
  5
12D
  8
DEFAULT
 10
18.64327341889791
 20
-0.5690706949770781
 30
0.0
  0
VERTEX
  5
12E
  8
DEFAULT
 10
18.67372586657489
 20
-0.6247130912735803
 30
0.0
  0
VERTEX
  5
12F
  8
DEFAULT
 10
18.70538846675633
 20
-0.6796782243699226
 30
0.0
  0
VERTEX
  5
130
  8
DEFAULT
 10
18.73824401106761
 20
-0.7339433665028486
 30
0.0
  0
VERTEX
  5
131
  8
DEFAULT
 10
18.77227179985611
 20
-0.7874873379896223
 30
0.0
  0
VERTEX
  5
132
  8
DEFAULT
 10
18.80745113346921
 20
-0.8402889591475076
 30
0.0
  0
VERTEX
  5
133
  8
DEFAULT
 10
18.84376131225426
 20
-0.8923270502937681
 30
0.0
  0
VERTEX
  5
134
  8
DEFAULT
 10
18.88118163655863
 20
-0.9435804317456676
 30
0.0
  0
VERTEX
  5
135
  8
DEFAULT
 10
18.9196914067297
 20
-0.9940279238204701
 30
0.0
  0
VERTEX
  5
136
  8
DEFAULT
 10
18.95926992311483
 20
-1.043648346835439
 30
0.0
  0
VERTEX
  5
137
  8
DEFAULT
 10
18.9998964860614
 20
-1.092420521107839
 30
0.0
  0
VERTEX
  5
138
  8
DEFAULT
 10
19.04155039591677
 20
-1.140323266954932
 30
0.0
  0
VERTEX
  5
139
  8
DEFAULT
 10
19.0842109530283
 20
-1.187335404693984
 30
0.0
  0
VERTEX
  5
13A
  8
DEFAULT
 10
19.12785745774338
 20
-1.233435754642257
 30
0.0
  0
VERTEX
  5
13B
  8
DEFAULT
 10
19.17246921040936
 20
-1.278603137117016
 30
0.0
  0
VERTEX
  5
13C
  8
DEFAULT
 10
19.21802551137363
 20
-1.322816372435524
 30
0.0
  0
VERTEX
  5
13D
  8
DEFAULT
 10
19.26450566098353
 20
-1.366054280915046
 30
0.0
  0
VERTEX
  5
13E
  8
DEFAULT
 10
19.31188895958645
 20
-1.408295682872844
 30
0.0
  0
VERTEX
  5
13F
  8
DEFAULT
 10
19.36015423528199
 20
-1.449520416591866
 30
0.0
  0
VERTEX
  5
140
  8
DEFAULT
 10
19.40927842717863
 20
-1.48971239221779
 30
0.0
  0
VERTEX
  5
141
  8
DEFAULT
 10
19.45923800213709
 20
-1.528856537861977
 30
0.0
  0
VERTEX
  5
142
  8
DEFAULT
 10
19.51000942701809
 20
-1.566937781635791
 30
0.0
  0
VERTEX
  5
143
  8
DEFAULT
 10
19.56156916868236
 20
-1.603941051650591
 30
0.0
  0
VERTEX
  5
144
  8
DEFAULT
 10
19.6138936939906
 20
-1.639851276017739
 30
0.0
  0
VERTEX
  5
145
  8
DEFAULT
 10
19.66695946980355
 20
-1.674653382848597
 30
0.0
  0
VERTEX
  5
146
  8
DEFAULT
 10
19.72074296298192
 20
-1.708332300254527
 30
0.0
  0
VERTEX
  5
147
  8
DEFAULT
 10
19.77522064038643
 20
-1.740872956346889
 30
0.0
  0
VERTEX
  5
148
  8
DEFAULT
 10
19.83036896887779
 20
-1.772260279237047
 30
0.0
  0
VERTEX
  5
149
  8
DEFAULT
 10
19.88616441531673
 20
-1.80247919703636
 30
0.0
  0
VERTEX
  5
14A
  8
DEFAULT
 10
19.94258344656397
 20
-1.831514637856191
 30
0.0
  0
VERTEX
  5
14B
  8
DEFAULT
 10
19.99960252948023
 20
-1.859351529807901
 30
0.0
  0
VERTEX
  5
14C
  8
DEFAULT
 10
20.05719813092622
 20
-1.885974801002851
 30
0.0
  0
VERTEX
  5
14D
  8
DEFAULT
 10
20.11534671776267
 20
-1.911369379552404
 30
0.0
  0
VERTEX
  5
14E
  8
DEFAULT
 10
20.17402475685029
 20
-1.935520193567921
 30
0.0
  0
VERTEX
  5
14F
  8
DEFAULT
 10
20.2332078930024
 20
-1.958413656383565
 30
0.0
  0
VERTEX
  5
150
  8
DEFAULT
 10
20.29286848284272
 20
-1.980042122224712
 30
0.0
  0
VERTEX
  5
151
  8
DEFAULT
 10
20.35297806094757
 20
-2.000399430539539
 30
0.0
  0
VERTEX
  5
152
  8
DEFAULT
 10
20.41350816189325
 20
-2.019479420776222
 30
0.0
  0
VERTEX
  5
153
  8
DEFAULT
 10
20.47443032025609
 20
-2.037275932382941
 30
0.0
  0
VERTEX
  5
154
  8
DEFAULT
 10
20.53571607061239
 20
-2.05378280480787
 30
0.0
  0
VERTEX
  5
155
  8
DEFAULT
 10
20.59733694753848
 20
-2.068993877499189
 30
0.0
  0
VERTEX
  5
156
  8
DEFAULT
 10
20.65926448561066
 20
-2.082902989905072
 30
0.0
  0
VERTEX
  5
157
  8
DEFAULT
 10
20.72147021940526
 20
-2.0955039814737
 30
0.0
  0
VERTEX
  5
158
  8
DEFAULT
 10
20.78392568349859
 20
-2.106790691653247
 30
0.0
  0
VERTEX
  5
159
  8
DEFAULT
 10
20.84660241246696
 20
-2.116756959891892
 30
0.0
  0
VERTEX
  5
15A
  8
DEFAULT
 10
20.90947194088668
 20
-2.125396625637812
 30
0.0
  0
VERTEX
  5
15B
  8
DEFAULT
 10
20.97250580333408
 20
-2.132703528339184
 30
0.0
  0
VERTEX
  5
15C
  8
DEFAULT
 10
21.03567553438546
 20
-2.138671507444186
 30
0.0
  0
VERTEX
  5
15D
  8
DEFAULT
 10
21.09895266861715
 20
-2.143294402400994
 30
0.0
  0
VERTEX
  5
15E
  8
DEFAULT
 10
21.16230874060545
 20
-2.146566052657786
 30
0.0
  0
VERTEX
  5
15F
  8
DEFAULT
 10
21.22571554969468
 20
-2.148482096664877
 30
0.0
  0
VERTEX
  5
160
  8
DEFAULT
 10
21.28914595430108
 20
-2.149045368881141
 30
0.0
  0
VERTEX
  5
161
  8
DEFAULT
 10
21.35257307760891
 20
-2.148260502767588
 30
0.0
  0
VERTEX
  5
162
  8
DEFAULT
 10
21.41597004280241
 20
-2.146132131785229
 30
0.0
  0
VERTEX
  5
163
  8
DEFAULT
 10
21.47930997306584
 20
-2.142664889395074
 30
0.0
  0
VERTEX
  5
164
  8
DEFAULT
 10
21.54256599158343
 20
-2.137863409058135
 30
0.0
  0
VERTEX
  5
165
  8
DEFAULT
 10
21.60571122153943
 20
-2.131732324235423
 30
0.0
  0
VERTEX
  5
166
  8
DEFAULT
 10
21.6687187861181
 20
-2.124276268387949
 30
0.0
  0
VERTEX
  5
167
  8
DEFAULT
 10
21.73156180850368
 20
-2.115499874976724
 30
0.0
  0
VERTEX
  5
168
  8
DEFAULT
 10
21.79421341188041
 20
-2.105407777462758
 30
0.0
  0
VERTEX
  5
169
  8
DEFAULT
 10
21.85664671943255
 20
-2.094004609307063
 30
0.0
  0
VERTEX
  5
16A
  8
DEFAULT
 10
21.91883485434434
 20
-2.081295003970649
 30
0.0
  0
VERTEX
  5
16B
  8
DEFAULT
 10
21.98075093980002
 20
-2.067283594914529
 30
0.0
  0
VERTEX
  5
16C
  8
DEFAULT
 10
22.04236809898386
 20
-2.051975015599711
 30
0.0
  0
VERTEX
  5
16D
  8
DEFAULT
 10
22.10365945508009
 20
-2.035373899487209
 30
0.0
  0
VERTEX
  5
16E
  8
DEFAULT
 10
22.16459813127295
 20
-2.017484880038031
 30
0.0
  0
VERTEX
  5
16F
  8
DEFAULT
 10
22.22515662593475
 20
-1.998313332077396
 30
0.0
  0
VERTEX
  5
170
  8
DEFAULT
 10
22.28530493818999
 20
-1.977867595887344
 30
0.0
  0
VERTEX
  5
171
  8
DEFAULT
 10
22.34501244235119
 20
-1.95615675311412
 30
0.0
  0
VERTEX
  5
172
  8
DEFAULT
 10
22.40424851273092
 20
-1.933189885403971
 30
0.0
  0
VERTEX
  5
173
  8
DEFAULT
 10
22.4629825236417
 20
-1.908976074403143
 30
0.0
  0
VERTEX
  5
174
  8
DEFAULT
 10
22.52118384939607
 20
-1.883524401757882
 30
0.0
  0
VERTEX
  5
175
  8
DEFAULT
 10
22.5788218643066
 20
-1.856843949114434
 30
0.0
  0
VERTEX
  5
176
  8
DEFAULT
 10
22.63586594268581
 20
-1.828943798119046
 30
0.0
  0
VERTEX
  5
177
  8
DEFAULT
 10
22.69228545884624
 20
-1.799833030417963
 30
0.0
  0
VERTEX
  5
178
  8
DEFAULT
 10
22.74804978710045
 20
-1.769520727657432
 30
0.0
  0
VERTEX
  5
179
  8
DEFAULT
 10
22.80312830176097
 20
-1.738015971483699
 30
0.0
  0
VERTEX
  5
17A
  8
DEFAULT
 10
22.85749037714035
 20
-1.70532784354301
 30
0.0
  0
VERTEX
  5
17B
  8
DEFAULT
 10
22.91110538755112
 20
-1.671465425481611
 30
0.0
  0
VERTEX
  5
17C
  8
DEFAULT
 10
22.96394270730584
 20
-1.636437798945749
 30
0.0
  0
VERTEX
  5
17D
  8
DEFAULT
 10
23.01597171071704
 20
-1.60025404558167
 30
0.0
  0
VERTEX
  5
17E
  8
DEFAULT
 10
23.06716177209726
 20
-1.562923247035618
 30
0.0
  0
VERTEX
  5
17F
  8
DEFAULT
 10
23.11748726274889
 20
-1.524458737275268
 30
0.0
  0
VERTEX
  5
180
  8
DEFAULT
 10
23.16694254193362
 20
-1.484890859553995
 30
0.0
  0
VERTEX
  5
181
  8
DEFAULT
 10
23.215526965903
 20
-1.444254209446601
 30
0.0
  0
VERTEX
  5
182
  8
DEFAULT
 10
23.26323989090854
 20
-1.402583382527889
 30
0.0
  0
VERTEX
  5
183
  8
DEFAULT
 10
23.31008067320181
 20
-1.359912974372661
 30
0.0
  0
VERTEX
  5
184
  8
DEFAULT
 10
23.35604866903432
 20
-1.316277580555719
 30
0.0
  0
VERTEX
  5
185
  8
DEFAULT
 10
23.40114323465761
 20
-1.271711796651867
 30
0.0
  0
VERTEX
  5
186
  8
DEFAULT
 10
23.44536372632322
 20
-1.226250218235905
 30
0.0
  0
VERTEX
  5
187
  8
DEFAULT
 10
23.48870950028268
 20
-1.179927440882637
 30
0.0
  0
VERTEX
  5
188
  8
DEFAULT
 10
23.53117991278754
 20
-1.132778060166865
 30
0.0
  0
VERTEX
  5
189
  8
DEFAULT
 10
23.57277432008933
 20
-1.084836671663391
 30
0.0
  0
VERTEX
  5
18A
  8
DEFAULT
 10
23.61349207843957
 20
-1.036137870947017
 30
0.0
  0
VERTEX
  5
18B
  8
DEFAULT
 10
23.65333254408981
 20
-0.9867162535925462
 30
0.0
  0
VERTEX
  5
18C
  8
DEFAULT
 10
23.69229507329159
 20
-0.9366064151747805
 30
0.0
  0
VERTEX
  5
18D
  8
DEFAULT
 10
23.76758374735588
 20
-0.8344604574485737
 30
0.0
  0
VERTEX
  5
18E
  8
DEFAULT
 10
23.83944243521869
 20
-0.7299897496058023
 30
0.0
  0
VERTEX
  5
18F
  8
DEFAULT
 10
23.90831340976202
 20
-0.6235359924398218
 30
0.0
  0
VERTEX
  5
190
  8
DEFAULT
 10
23.97472842844184
 20
-0.5154538739829739
 30
0.0
  0
VERTEX
  5
191
  8
DEFAULT
 10
26.30817709566035
 20
3.560801392636572
 30
0.0
  0
VERTEX
  5
192
  8
DEFAULT
 10
28.23786790648885
 20
7.13458817991269
 30
0.0
  0
VERTEX
  5
193
  8
DEFAULT
 10
29.60872092752862
 20
9.854820592465366
 30
0.0
  0
VERTEX
  5
194
  8
DEFAULT
 10
30.89997676922308
 20
12.61369158938307
 30
0.0
  0
VERTEX
  5
195
  8
DEFAULT
 10
31.71019860269958
 20
14.47583098520513
 30
0.0
  0
VERTEX
  5
196
  8
DEFAULT
 10
32.47577677000262
 20
16.35675979574822
 30
0.0
  0
VERTEX
  5
197
  8
DEFAULT
 10
33.19607097025023
 20
18.25549336879912
 30
0.0
  0
VERTEX
  5
198
  8
DEFAULT
 10
34.19337344573125
 20
21.13367747770357
 30
0.0
  0
VERTEX
  5
199
  8
DEFAULT
 10
35.09337957365464
 20
24.04376550481104
 30
0.0
  0
VERTEX
  5
19A
  8
DEFAULT
 10
35.89883731874878
 20
26.98143962876621
 30
0.0
  0
VERTEX
  5
19B
  8
DEFAULT
 10
36.61240638014295
 20
29.94278395006527
 30
0.0
  0
VERTEX
  5
19C
  8
DEFAULT
 10
37.23634665232741
 20
32.92430573209487
 30
0.0
  0
VERTEX
  5
19D
  8
DEFAULT
 10
37.77060994399554
 20
35.92319339429235
 30
0.0
  0
VERTEX
  5
19E
  8
DEFAULT
 10
38.21410851725705
 20
38.93683969875617
 30
0.0
  0
VERTEX
  5
19F
  8
DEFAULT
 10
38.56583778695425
 20
41.96256802773625
 30
0.0
  0
VERTEX
  5
1A0
  8
DEFAULT
 10
38.82489429413866
 20
44.9976342128512
 30
0.0
  0
VERTEX
  5
1A1
  8
DEFAULT
 10
38.99047886421143
 20
48.03923100218309
 30
0.0
  0
VERTEX
  5
1A2
  8
DEFAULT
 10
39.06151615199174
 20
51.0844995188715
 30
0.0
  0
VERTEX
  5
1A3
  8
DEFAULT
 10
39.03631920833475
 20
54.13048760432221
 30
0.0
  0
VERTEX
  5
1A4
  8
DEFAULT
 10
38.91298503329573
 20
57.17407647218126
 30
0.0
  0
VERTEX
  5
1A5
  8
DEFAULT
 10
38.68945246039881
 20
60.21194390619921
 30
0.0
  0
VERTEX
  5
1A6
  8
DEFAULT
 10
38.36352820663353
 20
63.24053022410276
 30
0.0
  0
VERTEX
  5
1A7
  8
DEFAULT
 10
37.93416732936664
 20
66.2561942419635
 30
0.0
  0
VERTEX
  5
1A8
  8
DEFAULT
 10
37.40612064155341
 20
69.25616775192049
 30
0.0
  0
VERTEX
  5
1A9
  8
DEFAULT
 10
36.7860734602571
 20
72.23849999559908
 30
0.0
  0
VERTEX
  5
1AA
  8
DEFAULT
 10
36.08090816352039
 20
75.20188223259441
 30
0.0
  0
VERTEX
  5
1AB
  8
DEFAULT
 10
35.02029545381941
 20
79.12238795652856
 30
0.0
  0
VERTEX
  5
1AC
  8
DEFAULT
 10
34.13878394527752
 20
82.03817868368134
 30
0.0
  0
VERTEX
  5
1AD
  8
DEFAULT
 10
33.49857708679644
 20
83.96538440501955
 30
0.0
  0
VERTEX
  5
1AE
  8
DEFAULT
 10
32.80444571804188
 20
85.87380279046945
 30
0.0
  0
VERTEX
  5
1AF
  8
DEFAULT
 10
32.433948822539
 20
86.81919032927316
 30
0.0
  0
VERTEX
  5
1B0
  8
DEFAULT
 10
32.04612160383633
 20
87.75759761670705
 30
0.0
  0
VERTEX
  5
1B1
  8
DEFAULT
 10
31.63969209519247
 20
88.68809840871953
 30
0.0
  0
VERTEX
  5
1B2
  8
DEFAULT
 10
31.21341100417557
 20
89.6096701007886
 30
0.0
  0
VERTEX
  5
1B3
  8
DEFAULT
 10
30.76606166188614
 20
90.5211958169414
 30
0.0
  0
VERTEX
  5
1B4
  8
DEFAULT
 10
30.29647373468046
 20
91.42146485076785
 30
0.0
  0
VERTEX
  5
1B5
  8
DEFAULT
 10
29.8035453962797
 20
92.30916485665249
 30
0.0
  0
VERTEX
  5
1B6
  8
DEFAULT
 10
29.28626196969207
 20
93.18289027380517
 30
0.0
  0
VERTEX
  5
1B7
  8
DEFAULT
 10
28.74371573113952
 20
94.0411549341345
 30
0.0
  0
VERTEX
  5
1B8
  8
DEFAULT
 10
28.17515530129253
 20
94.88240993208493
 30
0.0
  0
VERTEX
  5
1B9
  8
DEFAULT
 10
27.58061369907555
 20
95.70550648686316
 30
0.0
  0
VERTEX
  5
1BA
  8
DEFAULT
 10
26.96092553092522
 20
96.50984264308795
 30
0.0
  0
VERTEX
  5
1BB
  8
DEFAULT
 10
26.31694881280833
 20
97.29486942136529
 30
0.0
  0
VERTEX
  5
1BC
  8
DEFAULT
 10
25.64951809266043
 20
98.06005467939269
 30
0.0
  0
VERTEX
  5
1BD
  8
DEFAULT
 10
24.959440955277
 20
98.80488235853126
 30
0.0
  0
VERTEX
  5
1BE
  8
DEFAULT
 10
24.24750181577114
 20
99.52884405148156
 30
0.0
  0
VERTEX
  5
1BF
  8
DEFAULT
 10
23.51446445775171
 20
100.2314337467147
 30
0.0
  0
VERTEX
  5
1C0
  8
DEFAULT
 10
22.76106901556385
 20
100.9121485541962
 30
0.0
  0
VERTEX
  5
1C1
  8
DEFAULT
 10
21.98803829019108
 20
101.5704808727568
 30
0.0
  0
VERTEX
  5
1C2
  8
DEFAULT
 10
21.19607834576662
 20
102.2059169642206
 30
0.0
  0
VERTEX
  5
1C3
  8
DEFAULT
 10
20.38588362078747
 20
102.817932237994
 30
0.0
  0
VERTEX
  5
1C4
  8
DEFAULT
 10
19.55813691402936
 20
103.4059912551898
 30
0.0
  0
VERTEX
  5
1C5
  8
DEFAULT
 10
18.713514966084
 20
103.9695438297661
 30
0.0
  0
VERTEX
  5
1C6
  8
DEFAULT
 10
17.85269176316415
 20
104.5080236338952
 30
0.0
  0
VERTEX
  5
1C7
  8
DEFAULT
 10
16.9763422544442
 20
105.0208470308266
 30
0.0
  0
VERTEX
  5
1C8
  8
DEFAULT
 10
16.08514694468055
 20
105.5074127179141
 30
0.0
  0
VERTEX
  5
1C9
  8
DEFAULT
 10
15.17984831234924
 20
105.9672061057027
 30
0.0
  0
VERTEX
  5
1CA
  8
DEFAULT
 10
14.26130422664482
 20
106.399933635987
 30
0.0
  0
VERTEX
  5
1CB
  8
DEFAULT
 10
13.33037914257041
 20
106.8053413990193
 30
0.0
  0
VERTEX
  5
1CC
  8
DEFAULT
 10
12.38792923243568
 20
107.183184802494
 30
0.0
  0
VERTEX
  5
1CD
  8
DEFAULT
 10
11.43480335547962
 20
107.5332262183268
 30
0.0
  0
VERTEX
  5
1CE
  8
DEFAULT
 10
10.47184442054733
 20
107.8552329004405
 30
0.0
  0
VERTEX
  5
1CF
  8
DEFAULT
 10
9.49989084226246
 20
108.1489752858985
 30
0.0
  0
VERTEX
  5
1D0
  8
DEFAULT
 10
8.519778230303679
 20
108.4142256116583
 30
0.0
  0
VERTEX
  5
1D1
  8
DEFAULT
 10
7.532341460540439
 20
108.6507568228694
 30
0.0
  0
VERTEX
  5
1D2
  8
DEFAULT
 10
6.538416608034746
 20
108.8583419227579
 30
0.0
  0
VERTEX
  5
1D3
  8
DEFAULT
 10
5.538843148749475
 20
109.0367536439932
 30
0.0
  0
VERTEX
  5
1D4
  8
DEFAULT
 10
4.534466123179595
 20
109.1857645255862
 30
0.0
  0
VERTEX
  5
1D5
  8
DEFAULT
 10
3.52613848495197
 20
109.3051473590345
 30
0.0
  0
VERTEX
  5
1D6
  8
DEFAULT
 10
2.514723230689269
 20
109.3946760762252
 30
0.0
  0
VERTEX
  5
1D7
  8
DEFAULT
 10
1.50109560702653
 20
109.4541270334849
 30
0.0
  0
VERTEX
  5
1D8
  8
DEFAULT
 10
0.4861450796433454
 20
109.4832807345209
 30
0.0
  0
VERTEX
  5
1D9
  8
DEFAULT
 10
-0.5292232788911685
 20
109.4819915629324
 30
0.0
  0
VERTEX
  5
1DA
  8
DEFAULT
 10
-1.544101136508389
 20
109.4503935037121
 30
0.0
  0
VERTEX
  5
1DB
  8
DEFAULT
 10
-2.55759488693695
 20
109.3886943619914
 30
0.0
  0
VERTEX
  5
1DC
  8
DEFAULT
 10
-3.568826033430724
 20
109.2971048740596
 30
0.0
  0
VERTEX
  5
1DD
  8
DEFAULT
 10
-4.57692906542338
 20
109.1758368328513
 30
0.0
  0
VERTEX
  5
1DE
  8
DEFAULT
 10
-5.581049111877762
 20
109.0251016591346
 30
0.0
  0
VERTEX
  5
1DF
  8
DEFAULT
 10
-6.580339532843796
 20
108.8451094059819
 30
0.0
  0
VERTEX
  5
1E0
  8
DEFAULT
 10
-7.573959406446054
 20
108.6360682011972
 30
0.0
  0
VERTEX
  5
1E1
  8
DEFAULT
 10
-8.56107130980816
 20
108.3981840396097
 30
0.0
  0
VERTEX
  5
1E2
  8
DEFAULT
 10
-9.540838749103948
 20
108.1316610486195
 30
0.0
  0
VERTEX
  5
1E3
  8
DEFAULT
 10
-10.51242395507627
 20
107.8367020856974
 30
0.0
  0
VERTEX
  5
1E4
  8
DEFAULT
 10
-11.47498561089302
 20
107.5135097615279
 30
0.0
  0
VERTEX
  5
1E5
  8
DEFAULT
 10
-12.42767700310948
 20
107.1622877472776
 30
0.0
  0
VERTEX
  5
1E6
  8
DEFAULT
 10
-13.36964407052408
 20
106.7832425314683
 30
0.0
  0
VERTEX
  5
1E7
  8
DEFAULT
 10
-14.3000238944623
 20
106.3765854579914
 30
0.0
  0
VERTEX
  5
1E8
  8
DEFAULT
 10
-15.21794332058356
 20
105.9425351576714
 30
0.0
  0
VERTEX
  5
1E9
  8
DEFAULT
 10
-16.12253296518252
 20
105.4813486455232
 30
0.0
  0
VERTEX
  5
1EA
  8
DEFAULT
 10
-17.01303354224752
 20
104.9935115163749
 30
0.0
  0
VERTEX
  5
1EB
  8
DEFAULT
 10
-17.88874935965121
 20
104.4796059111198
 30
0.0
  0
VERTEX
  5
1EC
  8
DEFAULT
 10
-18.7489949265795
 20
103.9402030995836
 30
0.0
  0
VERTEX
  5
1ED
  8
DEFAULT
 10
-19.59309115910595
 20
103.3758629154409
 30
0.0
  0
VERTEX
  5
1EE
  8
DEFAULT
 10
-20.42036206967128
 20
102.7871342418629
 30
0.0
  0
VERTEX
  5
1EF
  8
DEFAULT
 10
-21.23013156081612
 20
102.1745559760878
 30
0.0
  0
VERTEX
  5
1F0
  8
DEFAULT
 10
-22.02172047799132
 20
101.5386583603301
 30
0.0
  0
VERTEX
  5
1F1
  8
DEFAULT
 10
-22.79444380368481
 20
100.8799647619813
 30
0.0
  0
VERTEX
  5
1F2
  8
DEFAULT
 10
-23.54760822481314
 20
100.198993722271
 30
0.0
  0
VERTEX
  5
1F3
  8
DEFAULT
 10
-24.28050995574353
 20
99.49626135779336
 30
0.0
  0
VERTEX
  5
1F4
  8
DEFAULT
 10
-24.99243281534667
 20
98.77228414335643
 30
0.0
  0
VERTEX
  5
1F5
  8
DEFAULT
 10
-25.68264659639321
 20
98.02758208551474
 30
0.0
  0
VERTEX
  5
1F6
  8
DEFAULT
 10
-26.35040596661203
 20
97.26268207125855
 30
0.0
  0
VERTEX
  5
1F7
  8
DEFAULT
 10
-26.99495042252875
 20
96.47812072084187
 30
0.0
  0
VERTEX
  5
1F8
  8
DEFAULT
 10
-27.61550290445017
 20
95.67444964320799
 30
0.0
  0
VERTEX
  5
1F9
  8
DEFAULT
 10
-28.21128433524661
 20
94.85224794099786
 30
0.0
  0
VERTEX
  5
1FA
  8
DEFAULT
 10
-28.7817383308589
 20
94.01227494058159
 30
0.0
  0
VERTEX
  5
1FB
  8
DEFAULT
 10
-29.32652608967802
 20
93.15543195647459
 30
0.0
  0
VERTEX
  5
1FC
  8
DEFAULT
 10
-29.84534922768876
 20
92.28262193698814
 30
0.0
  0
VERTEX
  5
1FD
  8
DEFAULT
 10
-30.33794080471598
 20
91.3947431224906
 30
0.0
  0
VERTEX
  5
1FE
  8
DEFAULT
 10
-30.8040629806336
 20
90.49268617189213
 30
0.0
  0
VERTEX
  5
1FF
  8
DEFAULT
 10
-31.24350357284934
 20
89.57733379213747
 30
0.0
  0
VERTEX
  5
200
  8
DEFAULT
 10
-31.65607333399497
 20
88.64955992228417
 30
0.0
  0
VERTEX
  5
201
  8
DEFAULT
 10
-32.04160371828444
 20
87.71022853491229
 30
0.0
  0
VERTEX
  5
202
  8
DEFAULT
 10
-32.39994529872286
 20
86.7601911608341
 30
0.0
  0
VERTEX
  5
203
  8
DEFAULT
 10
-32.73096389533012
 20
85.80029104542606
 30
0.0
  0
VERTEX
  5
204
  8
DEFAULT
 10
-33.03453964857617
 20
84.83136113663589
 30
0.0
  0
VERTEX
  5
205
  8
DEFAULT
 10
-33.31056491093946
 20
83.85422597612354
 30
0.0
  0
VERTEX
  5
206
  8
DEFAULT
 10
-33.5589432455692
 20
82.86970124262515
 30
0.0
  0
VERTEX
  5
207
  8
DEFAULT
 10
-33.77958892973734
 20
81.87859125132272
 30
0.0
  0
VERTEX
  5
208
  8
DEFAULT
 10
-33.97242512300631
 20
80.88169225811009
 30
0.0
  0
VERTEX
  5
209
  8
DEFAULT
 10
-34.1373796709338
 20
79.87980659245866
 30
0.0
  0
VERTEX
  5
20A
  8
DEFAULT
 10
-34.27431024131035
 20
78.87370801988763
 30
0.0
  0
VERTEX
  5
20B
  8
DEFAULT
 10
-34.38292730498991
 20
77.8641608088265
 30
0.0
  0
VERTEX
  5
20C
  8
DEFAULT
 10
-34.46287448119389
 20
76.85194030582619
 30
0.0
  0
VERTEX
  5
20D
  8
DEFAULT
 10
-34.51373799661883
 20
75.83784317301578
 30
0.0
  0
VERTEX
  5
20E
  8
DEFAULT
 10
-34.53504866606626
 20
74.82269609099166
 30
0.0
  0
VERTEX
  5
20F
  8
DEFAULT
 10
-34.52628445405846
 20
73.80736453557034
 30
0.0
  0
VERTEX
  5
210
  8
DEFAULT
 10
-34.48687375982475
 20
72.79276110743066
 30
0.0
  0
VERTEX
  5
211
  8
DEFAULT
 10
-34.41619984943204
 20
71.77985737359603
 30
0.0
  0
VERTEX
  5
212
  8
DEFAULT
 10
-34.31360641763413
 20
70.76969053817315
 30
0.0
  0
VERTEX
  5
213
  8
DEFAULT
 10
-34.17840401412183
 20
69.76336894008678
 30
0.0
  0
VERTEX
  5
214
  8
DEFAULT
 10
-34.00988023978736
 20
68.762091963562
 30
0.0
  0
VERTEX
  5
215
  8
DEFAULT
 10
-33.80731013382805
 20
67.76715036357572
 30
0.0
  0
VERTEX
  5
216
  8
DEFAULT
 10
-33.69303022684537
 20
67.27248163106316
 30
0.0
  0
VERTEX
  5
217
  8
DEFAULT
 10
-33.56996700577757
 20
66.77992444431283
 30
0.0
  0
VERTEX
  5
218
  8
DEFAULT
 10
-33.43803233227929
 20
66.28966904403646
 30
0.0
  0
VERTEX
  5
219
  8
DEFAULT
 10
-33.29714351760531
 20
65.80191350800072
 30
0.0
  0
VERTEX
  5
21A
  8
DEFAULT
 10
-33.14721791083398
 20
65.3168605103564
 30
0.0
  0
VERTEX
  5
21B
  8
DEFAULT
 10
-32.98816756273798
 20
64.83472327373639
 30
0.0
  0
VERTEX
  5
21C
  8
DEFAULT
 10
-32.81991398008448
 20
64.35571770933097
 30
0.0
  0
VERTEX
  5
21D
  8
DEFAULT
 10
-32.64242179192438
 20
63.88005993407818
 30
0.0
  0
VERTEX
  5
21E
  8
DEFAULT
 10
-32.45575375426585
 20
63.4079284931155
 30
0.0
  0
VERTEX
  5
21F
  8
DEFAULT
 10
-32.26032200866248
 20
62.93935143863082
 30
0.0
  0
VERTEX
  5
220
  8
DEFAULT
 10
-31.84512011502469
 20
62.01276552866453
 30
0.0
  0
VERTEX
  5
221
  8
DEFAULT
 10
-31.40058836377334
 20
61.0998779010709
 30
0.0
  0
VERTEX
  5
222
  8
DEFAULT
 10
-30.93044155637912
 20
60.19990369963216
 30
0.0
  0
VERTEX
  5
223
  8
DEFAULT
 10
-30.43828359077384
 20
59.31176737351765
 30
0.0
  0
VERTEX
  5
224
  8
DEFAULT
 10
-29.92757346823181
 20
58.43415865139044
 30
0.0
  0
VERTEX
  5
225
  8
DEFAULT
 10
-28.86357771374846
 20
56.70446178246753
 30
0.0
  0
VERTEX
  5
226
  8
DEFAULT
 10
-25.0030511493186
 20
50.73655989066843
 30
0.0
  0
VERTEX
  5
227
  8
DEFAULT
 10
-23.95411857968274
 20
48.99770281687524
 30
0.0
  0
VERTEX
  5
228
  8
DEFAULT
 10
-22.96130121298172
 20
47.22621759421486
 30
0.0
  0
VERTEX
  5
229
  8
DEFAULT
 10
-22.02693704771756
 20
45.42322046125523
 30
0.0
  0
VERTEX
  5
22A
  8
DEFAULT
 10
-21.15268618641119
 20
43.59032449754441
 30
0.0
  0
VERTEX
  5
22B
  8
DEFAULT
 10
-20.34006776946769
 20
41.72928534174964
 30
0.0
  0
VERTEX
  5
22C
  8
DEFAULT
 10
-19.59044060848971
 20
39.8419932956608
 30
0.0
  0
VERTEX
  5
22D
  8
DEFAULT
 10
-18.90498363977423
 20
37.93045843794611
 30
0.0
  0
VERTEX
  5
22E
  8
DEFAULT
 10
-18.28468216326251
 20
35.9968029793683
 30
0.0
  0
VERTEX
  5
22F
  8
DEFAULT
 10
-17.73035140936601
 20
34.04320451976744
 30
0.0
  0
VERTEX
  5
230
  8
DEFAULT
 10
-17.47863742610857
 20
33.05950535315026
 30
0.0
  0
VERTEX
  5
231
  8
DEFAULT
 10
-17.24487001183495
 20
32.07138858928064
 30
0.0
  0
VERTEX
  5
232
  8
DEFAULT
 10
-17.02989204361983
 20
31.07901554600872
 30
0.0
  0
VERTEX
  5
233
  8
DEFAULT
 10
-16.83458800447492
 20
30.08258542092559
 30
0.0
  0
VERTEX
  5
234
  8
DEFAULT
 10
-16.65988358037366
 20
29.08233948032917
 30
0.0
  0
VERTEX
  5
235
  8
DEFAULT
 10
-16.50674484618593
 20
28.07856724463219
 30
0.0
  0
VERTEX
  5
236
  8
DEFAULT
 10
-16.37617628865641
 20
27.07161180366875
 30
0.0
  0
VERTEX
  5
237
  8
DEFAULT
 10
-16.26921799932659
 20
26.06187771141746
 30
0.0
  0
VERTEX
  5
238
  8
DEFAULT
 10
-16.18694110878272
 20
25.04983660013069
 30
0.0
  0
VERTEX
  5
239
  8
DEFAULT
 10
-16.13044165816337
 20
24.03603039322251
 30
0.0
  0
VERTEX
  5
23A
  8
DEFAULT
 10
-16.10083337577819
 20
23.02108562117941
 30
0.0
  0
VERTEX
  5
23B
  8
DEFAULT
 10
-16.09923732360958
 20
22.00571320621841
 30
0.0
  0
VERTEX
  5
23C
  8
DEFAULT
 10
-16.1267699740434
 20
20.99071666110586
 30
0.0
  0
VERTEX
  5
23D
  8
DEFAULT
 10
-16.18452893462278
 20
19.97699255466869
 30
0.0
  0
VERTEX
  5
23E
  8
DEFAULT
 10
-16.2735759543747
 20
18.96553948204951
 30
0.0
  0
VERTEX
  5
23F
  8
DEFAULT
 10
-16.32795501762164
 20
18.46064044163493
 30
0.0
  0
VERTEX
  5
240
  8
DEFAULT
 10
-16.39481918623603
 20
17.95744089037892
 30
0.0
  0
VERTEX
  5
241
  8
DEFAULT
 10
-16.51409317179287
 20
17.20539181904447
 30
0.0
  0
SEQEND
  5
242
  8
DEFAULT
  0
LINE
  5
243
  8
DEFAULT
 10
-5.000257431639156
 20
74.99967216741166
 30
0.0
 11
4.999742568360844
 21
74.99967216741166
 31
0.0
  0
LINE
  5
244
  8
DEFAULT
 10
0.0000704009491841
 20
69.99934433482332
 30
0.0
 11
0.0000704009491841
 21
79.99934433482332
 31
0.0
  0
ENDSEC
  0
EOF
