  0
SECTION
  2
BLOCKS
  0
ENDSEC
  0
SECTION
  2
ENTITIES
  0
LINE
  8
0
 10
1.41278
 20
-22.4556
 11
2.81999
 21
-22.3226
  0
LINE
  8
0
 10
2.81999
 20
-22.3226
 11
4.21606
 21
-22.1015
  0
LINE
  8
0
 10
4.21606
 20
-22.1015
 11
5.59552
 21
-21.7931
  0
LINE
  8
0
 10
5.59552
 20
-21.7931
 11
6.95288
 21
-21.3988
  0
LINE
  8
0
 10
6.95288
 20
-21.3988
 11
8.28279
 21
-20.92
  0
LINE
  8
0
 10
8.28279
 20
-20.92
 11
9.58003
 21
-20.3586
  0
LINE
  8
0
 10
9.58003
 20
-20.3586
 11
10.8394
 21
-19.7169
  0
LINE
  8
0
 10
10.8394
 20
-19.7169
 11
12.0561
 21
-18.9974
  0
LINE
  8
0
 10
12.0561
 20
-18.9974
 11
13.2252
 21
-18.2029
  0
LINE
  8
0
 10
13.2252
 20
-18.2029
 11
14.342
 21
-17.3365
  0
LINE
  8
0
 10
14.342
 20
-17.3365
 11
15.4023
 21
-16.4018
  0
LINE
  8
0
 10
15.4023
 20
-16.4018
 11
16.4018
 21
-15.4023
  0
LINE
  8
0
 10
16.4018
 20
-15.4023
 11
17.3365
 21
-14.342
  0
LINE
  8
0
 10
17.3365
 20
-14.342
 11
17.703
 21
-13.8697
  0
LINE
  8
0
 10
17.703
 20
-13.8697
 11
19.1376
 21
-12.2424
  0
LINE
  8
0
 10
19.1376
 20
-12.2424
 11
22.988
 21
-7.27852
  0
LINE
  8
0
 10
22.988
 20
-7.27852
 11
26.5191
 21
-2.08267
  0
LINE
  8
0
 10
26.5191
 20
-2.08267
 11
29.7169
 21
3.32463
  0
LINE
  8
0
 10
29.7169
 20
3.32463
 11
32.569
 21
8.92206
  0
LINE
  8
0
 10
32.569
 20
8.92206
 11
35.0639
 21
14.6875
  0
LINE
  8
0
 10
35.0639
 20
14.6875
 11
37.1919
 21
20.5983
  0
LINE
  8
0
 10
37.1919
 20
20.5983
 11
38.9446
 21
26.631
  0
LINE
  8
0
 10
38.9446
 20
26.631
 11
40.315
 21
32.7619
  0
LINE
  8
0
 10
40.315
 20
32.7619
 11
41.2977
 21
38.9667
  0
LINE
  8
0
 10
41.2977
 20
38.9667
 11
41.8889
 21
45.2209
  0
LINE
  8
0
 10
41.8889
 20
45.2209
 11
42.0863
 21
51.5
  0
LINE
  8
0
 10
42.0863
 20
51.5
 11
41.8889
 21
57.779
  0
LINE
  8
0
 10
41.8889
 20
57.779
 11
41.2977
 21
64.0333
  0
LINE
  8
0
 10
41.2977
 20
64.0333
 11
40.315
 21
70.2381
  0
LINE
  8
0
 10
40.315
 20
70.2381
 11
38.9446
 21
76.369
  0
LINE
  8
0
 10
38.9446
 20
76.369
 11
37.1919
 21
82.4017
  0
LINE
  8
0
 10
37.1919
 20
82.4017
 11
35.0639
 21
88.3125
  0
LINE
  8
0
 10
35.0639
 20
88.3125
 11
34.9443
 21
88.5889
  0
LINE
  8
0
 10
34.9443
 20
88.5889
 11
34.8666
 21
88.8047
  0
LINE
  8
0
 10
34.8666
 20
88.8047
 11
33.931
 21
90.9667
  0
LINE
  8
0
 10
33.931
 20
90.9667
 11
32.8615
 21
93.0658
  0
LINE
  8
0
 10
32.8615
 20
93.0658
 11
31.6623
 21
95.0935
  0
LINE
  8
0
 10
31.6623
 20
95.0935
 11
30.3381
 21
97.0419
  0
LINE
  8
0
 10
30.3381
 20
97.0419
 11
28.8942
 21
98.9034
  0
LINE
  8
0
 10
28.8942
 20
98.9034
 11
27.3363
 21
100.671
  0
LINE
  8
0
 10
27.3363
 20
100.671
 11
25.6705
 21
102.336
  0
LINE
  8
0
 10
25.6705
 20
102.336
 11
23.9034
 21
103.894
  0
LINE
  8
0
 10
23.9034
 20
103.894
 11
22.0419
 21
105.338
  0
LINE
  8
0
 10
22.0419
 20
105.338
 11
20.0935
 21
106.662
  0
LINE
  8
0
 10
20.0935
 20
106.662
 11
18.0658
 21
107.861
  0
LINE
  8
0
 10
18.0658
 20
107.861
 11
15.9667
 21
108.931
  0
LINE
  8
0
 10
15.9667
 20
108.931
 11
13.8047
 21
109.867
  0
LINE
  8
0
 10
13.8047
 20
109.867
 11
11.5881
 21
110.665
  0
LINE
  8
0
 10
11.5881
 20
110.665
 11
9.32587
 21
111.322
  0
LINE
  8
0
 10
9.32587
 20
111.322
 11
7.02679
 21
111.836
  0
LINE
  8
0
 10
7.02679
 20
111.836
 11
4.69998
 21
112.204
  0
LINE
  8
0
 10
4.69998
 20
112.204
 11
2.35463
 21
112.426
  0
LINE
  8
0
 10
2.35463
 20
112.426
 11
0
 21
112.5
  0
LINE
  8
0
 10
0
 20
112.5
 11
-2.35463
 21
112.426
  0
LINE
  8
0
 10
-2.35463
 20
112.426
 11
-4.69998
 21
112.204
  0
LINE
  8
0
 10
-4.69998
 20
112.204
 11
-7.02679
 21
111.836
  0
LINE
  8
0
 10
-7.02679
 20
111.836
 11
-9.32587
 21
111.322
  0
LINE
  8
0
 10
-9.32587
 20
111.322
 11
-11.5881
 21
110.665
  0
LINE
  8
0
 10
-11.5881
 20
110.665
 11
-13.8047
 21
109.867
  0
LINE
  8
0
 10
-13.8047
 20
109.867
 11
-15.9667
 21
108.931
  0
LINE
  8
0
 10
-15.9667
 20
108.931
 11
-18.0658
 21
107.861
  0
LINE
  8
0
 10
-18.0658
 20
107.861
 11
-20.0935
 21
106.662
  0
LINE
  8
0
 10
-20.0935
 20
106.662
 11
-22.0419
 21
105.338
  0
LINE
  8
0
 10
-22.0419
 20
105.338
 11
-23.9034
 21
103.894
  0
LINE
  8
0
 10
-23.9034
 20
103.894
 11
-25.6705
 21
102.336
  0
LINE
  8
0
 10
-25.6705
 20
102.336
 11
-27.3363
 21
100.671
  0
LINE
  8
0
 10
-27.3363
 20
100.671
 11
-28.8942
 21
98.9034
  0
LINE
  8
0
 10
-28.8942
 20
98.9034
 11
-30.3381
 21
97.0419
  0
LINE
  8
0
 10
-30.3381
 20
97.0419
 11
-31.6623
 21
95.0935
  0
LINE
  8
0
 10
-31.6623
 20
95.0935
 11
-32.8615
 21
93.0658
  0
LINE
  8
0
 10
-32.8615
 20
93.0658
 11
-33.931
 21
90.9667
  0
LINE
  8
0
 10
-33.931
 20
90.9667
 11
-34.8666
 21
88.8047
  0
LINE
  8
0
 10
-34.8666
 20
88.8047
 11
-35.6646
 21
86.5881
  0
LINE
  8
0
 10
-35.6646
 20
86.5881
 11
-36.3219
 21
84.3259
  0
LINE
  8
0
 10
-36.3219
 20
84.3259
 11
-36.8358
 21
82.0268
  0
LINE
  8
0
 10
-36.8358
 20
82.0268
 11
-37.2043
 21
79.7
  0
LINE
  8
0
 10
-37.2043
 20
79.7
 11
-37.426
 21
77.3546
  0
LINE
  8
0
 10
-37.426
 20
77.3546
 11
-37.5
 21
75
  0
LINE
  8
0
 10
-37.5
 20
75
 11
-37.426
 21
72.6454
  0
LINE
  8
0
 10
-37.426
 20
72.6454
 11
-37.2043
 21
70.3
  0
LINE
  8
0
 10
-37.2043
 20
70.3
 11
-36.8358
 21
67.9732
  0
LINE
  8
0
 10
-36.8358
 20
67.9732
 11
-36.3219
 21
65.6741
  0
LINE
  8
0
 10
-36.3219
 20
65.6741
 11
-35.6646
 21
63.4118
  0
LINE
  8
0
 10
-35.6646
 20
63.4118
 11
-34.8666
 21
61.1953
  0
LINE
  8
0
 10
-34.8666
 20
61.1953
 11
-33.931
 21
59.0333
  0
LINE
  8
0
 10
-33.931
 20
59.0333
 11
-32.8615
 21
56.9342
  0
LINE
  8
0
 10
-32.8615
 20
56.9342
 11
-31.6623
 21
54.9065
  0
LINE
  8
0
 10
-31.6623
 20
54.9065
 11
-30.3381
 21
52.958
  0
LINE
  8
0
 10
-30.3381
 20
52.958
 11
-29.6591
 21
52.0827
  0
LINE
  8
0
 10
-29.6591
 20
52.0827
 11
-29.6932
 21
52.0564
  0
LINE
  8
0
 10
-29.6932
 20
52.0564
 11
-28.7879
 21
50.8893
  0
LINE
  8
0
 10
-28.7879
 20
50.8893
 11
-27.0223
 21
48.2913
  0
LINE
  8
0
 10
-27.0223
 20
48.2913
 11
-25.4234
 21
45.5877
  0
LINE
  8
0
 10
-25.4234
 20
45.5877
 11
-23.9974
 21
42.789
  0
LINE
  8
0
 10
-23.9974
 20
42.789
 11
-22.7499
 21
39.9062
  0
LINE
  8
0
 10
-22.7499
 20
39.9062
 11
-21.6859
 21
36.9508
  0
LINE
  8
0
 10
-21.6859
 20
36.9508
 11
-20.8096
 21
33.9345
  0
LINE
  8
0
 10
-20.8096
 20
33.9345
 11
-20.1243
 21
30.8691
  0
LINE
  8
0
 10
-20.1243
 20
30.8691
 11
-19.633
 21
27.7666
  0
LINE
  8
0
 10
-19.633
 20
27.7666
 11
-19.3374
 21
24.6395
  0
LINE
  8
0
 10
-19.3374
 20
24.6395
 11
-19.2387
 21
21.5
  0
LINE
  8
0
 10
-19.2387
 20
21.5
 11
-19.3374
 21
18.3605
  0
LINE
  8
0
 10
-19.3374
 20
18.3605
 11
-19.633
 21
15.2333
  0
LINE
  8
0
 10
-19.633
 20
15.2333
 11
-20.1243
 21
12.1309
  0
LINE
  8
0
 10
-20.1243
 20
12.1309
 11
-20.8096
 21
9.06549
  0
LINE
  8
0
 10
-20.8096
 20
9.06549
 11
-21.5034
 21
6.67723
  0
LINE
  8
0
 10
-21.5034
 20
6.67723
 11
-21.4809
 21
6.67024
  0
LINE
  8
0
 10
-21.4809
 20
6.67024
 11
-21.7931
 21
5.59552
  0
LINE
  8
0
 10
-21.7931
 20
5.59552
 11
-22.1015
 21
4.21606
  0
LINE
  8
0
 10
-22.1015
 20
4.21606
 11
-22.3226
 21
2.81999
  0
LINE
  8
0
 10
-22.3226
 20
2.81999
 11
-22.4556
 21
1.41278
  0
LINE
  8
0
 10
-22.4556
 20
1.41278
 11
-22.5
 21
0
  0
LINE
  8
0
 10
-22.5
 20
0
 11
-22.4556
 21
-1.41278
  0
LINE
  8
0
 10
-22.4556
 20
-1.41278
 11
-22.3226
 21
-2.81999
  0
LINE
  8
0
 10
-22.3226
 20
-2.81999
 11
-22.1015
 21
-4.21606
  0
LINE
  8
0
 10
-22.1015
 20
-4.21606
 11
-21.7931
 21
-5.59552
  0
LINE
  8
0
 10
-21.7931
 20
-5.59552
 11
-21.3988
 21
-6.95288
  0
LINE
  8
0
 10
-21.3988
 20
-6.95288
 11
-20.92
 21
-8.28279
  0
LINE
  8
0
 10
-20.92
 20
-8.28279
 11
-20.3586
 21
-9.58003
  0
LINE
  8
0
 10
-20.3586
 20
-9.58003
 11
-19.7169
 21
-10.8394
  0
LINE
  8
0
 10
-19.7169
 20
-10.8394
 11
-18.9974
 21
-12.0561
  0
LINE
  8
0
 10
-18.9974
 20
-12.0561
 11
-18.2029
 21
-13.2252
  0
LINE
  8
0
 10
-18.2029
 20
-13.2252
 11
-17.3365
 21
-14.342
  0
LINE
  8
0
 10
-17.3365
 20
-14.342
 11
-16.4018
 21
-15.4023
  0
LINE
  8
0
 10
-16.4018
 20
-15.4023
 11
-15.4023
 21
-16.4018
  0
LINE
  8
0
 10
-15.4023
 20
-16.4018
 11
-14.342
 21
-17.3365
  0
LINE
  8
0
 10
-14.342
 20
-17.3365
 11
-13.2252
 21
-18.2029
  0
LINE
  8
0
 10
-13.2252
 20
-18.2029
 11
-12.0561
 21
-18.9974
  0
LINE
  8
0
 10
-12.0561
 20
-18.9974
 11
-10.8394
 21
-19.7169
  0
LINE
  8
0
 10
-10.8394
 20
-19.7169
 11
-9.58003
 21
-20.3586
  0
LINE
  8
0
 10
-9.58003
 20
-20.3586
 11
-8.28279
 21
-20.92
  0
LINE
  8
0
 10
-8.28279
 20
-20.92
 11
-6.95288
 21
-21.3988
  0
LINE
  8
0
 10
-6.95288
 20
-21.3988
 11
-5.59552
 21
-21.7931
  0
LINE
  8
0
 10
-5.59552
 20
-21.7931
 11
-4.21606
 21
-22.1015
  0
LINE
  8
0
 10
-4.21606
 20
-22.1015
 11
-2.81999
 21
-22.3226
  0
LINE
  8
0
 10
-2.81999
 20
-22.3226
 11
-1.41278
 21
-22.4556
  0
LINE
  8
0
 10
-1.41278
 20
-22.4556
 11
0
 21
-22.5
  0
LINE
  8
0
 10
0
 20
-22.5
 11
1.41278
 21
-22.4556
  0
ENDSEC
  0
SECTION
  2
OBJECTS
  0
DICTIONARY
  0
ENDSEC
  0
EOF
